<svg id="Group_509" data-name="Group 509" xmlns="http://www.w3.org/2000/svg" xmlns:xlink="http://www.w3.org/1999/xlink" width="375" height="492" viewBox="0 0 375 492">
  <defs>
    <linearGradient id="linear-gradient" y1="-0.201" x2="1.094" y2="1.133" gradientUnits="objectBoundingBox">
      <stop offset="0" stop-color="#1b4798"/>
      <stop offset="1" stop-color="#5cc3d6"/>
    </linearGradient>
    <clipPath id="clip-path">
      <rect id="Rectangle_8" data-name="Rectangle 8" width="375" height="230" transform="translate(0 211)" fill="url(#linear-gradient)"/>
    </clipPath>
    <filter id="Rectangle_10" x="7" y="305" width="362" height="170" filterUnits="userSpaceOnUse">
      <feOffset dy="3" input="SourceAlpha"/>
      <feGaussianBlur stdDeviation="18" result="blur"/>
      <feFlood flood-opacity="0.161"/>
      <feComposite operator="in" in2="blur"/>
      <feComposite in="SourceGraphic"/>
    </filter>
  </defs>
  <rect id="Rectangle_6" data-name="Rectangle 6" width="375" height="492" fill="url(#linear-gradient)"/>
  <g id="Mask_Group_1" data-name="Mask Group 1" transform="translate(0 51)" clip-path="url(#clip-path)">
    <path id="Rectangle_7" data-name="Rectangle 7" d="M30,0H176a30,30,0,0,1,30,30V250a0,0,0,0,1,0,0H0a0,0,0,0,1,0,0V30A30,30,0,0,1,30,0Z" transform="translate(85 236)" fill="#fff" stroke="#030047" stroke-linecap="round" stroke-linejoin="round" stroke-width="7"/>
    <rect id="Rectangle_12" data-name="Rectangle 12" width="106" height="37" rx="6" transform="translate(102 408)" fill="#536077" opacity="0.1"/>
    <rect id="Rectangle_13" data-name="Rectangle 13" width="59" height="37" rx="6" transform="translate(218 408)" fill="#536077" opacity="0.1"/>
    <rect id="Rectangle_14" data-name="Rectangle 14" width="62" height="11" rx="5.5" transform="translate(133 416)" fill="#536077" opacity="0.1"/>
    <rect id="Rectangle_16" data-name="Rectangle 16" width="11" height="11" rx="5.5" transform="translate(113 416)" fill="#536077" opacity="0.1"/>
    <rect id="Rectangle_15" data-name="Rectangle 15" width="62" height="11" rx="5.5" transform="translate(133 434)" fill="#536077" opacity="0.1"/>
  </g>
  <path id="Rectangle_9" data-name="Rectangle 9" d="M0,0H97a0,0,0,0,1,0,0V6A16,16,0,0,1,81,22H16A16,16,0,0,1,0,6V0A0,0,0,0,1,0,0Z" transform="translate(139 290)" fill="#030047"/>
  <rect id="Rectangle_11" data-name="Rectangle 11" width="174" height="37" rx="6" transform="translate(102 412)" fill="#536077" opacity="0.1"/>
  <g transform="matrix(1, 0, 0, 1, 0, 0)" filter="url(#Rectangle_10)">
    <rect id="Rectangle_10-2" data-name="Rectangle 10" width="254" height="62" rx="10" transform="translate(61 356)" fill="#fff"/>
  </g>
  <text id="_" data-name="􀁣" transform="translate(80 394)" fill="#5cc3d6" font-size="20" font-family="ArialMT, Arial"><tspan x="0" y="0">􀁣</tspan></text>
  <text id="Your_customer_emails" data-name="Your customer emails" transform="translate(120 385)" fill="#5cc3d6" font-size="18" font-family="SegoeUI, Segoe UI"><tspan x="0" y="0">Your customer emails</tspan></text>
  <text id="imported" transform="translate(120 404)" fill="#536077" font-size="14" font-family="SegoeUI, Segoe UI" letter-spacing="-0.008em"><tspan x="0" y="0">imported</tspan></text>
</svg>
