<svg xmlns="http://www.w3.org/2000/svg" width="40.507" height="35" viewBox="0 0 40.507 35">
  <g id="Group_1" data-name="Group 1" transform="translate(-121.794 -237.236)">
    <path id="Path_1" data-name="Path 1" d="M162.4,484.009a1.765,1.765,0,0,0-2.171-.847l-17.958,7.711-.042.018-18-7.729a1.578,1.578,0,1,0-1.218,2.912l18.635,7.994a1.323,1.323,0,0,0,.624.105h.011a2.654,2.654,0,0,0,.635-.106l18.635-7.994A1.619,1.619,0,0,0,162.4,484.009Z" transform="translate(-0.215 -221.938)" fill="#030047"/>
    <path id="Path_2" data-name="Path 2" d="M122.747,248.307l18.635,7.941a1.345,1.345,0,0,0,.635.106c.014,0,.028,0,.042,0a2.874,2.874,0,0,0,.593-.1l18.635-7.941a1.63,1.63,0,0,0,0-2.965l-18.147-7.785-.488-.209a1.861,1.861,0,0,0-1.27,0l-.386.166-18.249,7.828a1.6,1.6,0,0,0-.494.37,1.572,1.572,0,0,0-.071,2.142A1.6,1.6,0,0,0,122.747,248.307Zm20.126-7.966,13.756,6.484L142.059,253l-.042.018-13.866-5.583,14.21.2a1.071,1.071,0,0,0,1.059-1.1Zm-2.158,4.968s-11.012-.031-11.083,0h0l10.8-4.7C140.487,241.954,140.715,245.309,140.715,245.309Z" transform="translate(0)" fill="#030047"/>
    <path id="Path_3" data-name="Path 3" d="M122.881,404.3l18.635,7.941a1.343,1.343,0,0,0,.635.106c.014,0,.028,0,.042,0a2.875,2.875,0,0,0,.593-.1l18.635-7.941a1.6,1.6,0,0,0,.847-2.065,1.619,1.619,0,0,0-2.065-.847l-18.011,7.606-.042.018-18-7.676a1.555,1.555,0,0,0-2.065.847A1.608,1.608,0,0,0,122.881,404.3Z" transform="translate(-0.134 -148.05)" fill="#030047"/>
  </g>
</svg>
